# xmcd
#
# Track frame offsets: 
#        150
#        2186
#        25522
#        52782
#        83639
#        113803
#        129834
#        147188
#        171679
#        197361
#        219497
#        244690
#
# Disc length: 3404 seconds
#
# Revision: 0
# Processed by: cddbd v1.5.2PL0 Copyright (c) Steve Scherf et al.
# Submitted via: ExactAudioCopy v0.99pb5
#
DISCID=930d4a0c
DTITLE=William Clarke - Live Bootleg Cassette Anthology
DYEAR=2010
DGENRE=Blues
TTITLE0=Introduction
TTITLE1=Walked All Night Long
TTITLE2=Lollipop Mama Jam
TTITLE3=Telelphone Is Ringing
TTITLE4=Must Be Jelly
TTITLE5=Tryin' To Stretch My Money
TTITLE6=My Last Goodbye
TTITLE7=Home Is Where The Heart Is
TTITLE8=Loose Your Life
TTITLE9=Ice Cream Man - Walked All Night Long
TTITLE10=Lonesome In My Bedroom
TTITLE11=Bill's Last Tune ....Goodbye
EXTD=
EXTT0=
EXTT1=
EXTT2=
EXTT3=
EXTT4=
EXTT5=
EXTT6=
EXTT7=
EXTT8=
EXTT9=
EXTT10=
EXTT11=
PLAYORDER=
